<svg xmlns="http://www.w3.org/2000/svg" width="128" height="128" viewBox="0 0 128 128">
  <!-- 接待：两人相对作揖（唐礼） -->
  <g stroke="#2C2C2C" stroke-width="3" stroke-linecap="round" stroke-linejoin="round" fill="none">
    <!-- 左人：抱拳躬身 -->
    <circle cx="42" cy="38" r="11" fill="#F5F0E8"/>
    <path d="M 34 52 C 30 74 30 92 30 104 L 54 104 C 54 92 54 74 50 52"/>
    <path d="M 38 52 L 42 66 L 46 52"/>            <!-- 交领 -->
    <path d="M 40 50 C 36 44 40 40 48 40"/>        <!-- 幞头 -->
    <path d="M 30 66 C 24 62 20 54 24 50 C 26 48 30 48 32 52"/> <!-- 抱拳左臂 -->
    <path d="M 50 66 C 56 62 60 54 56 50 C 54 48 50 48 48 52"/> <!-- 抱拳右臂 -->
    <circle cx="41" cy="44" r="0" />
  </g>
  <!-- 右人（镜像，稍低显谦逊） -->
  <g stroke="#8B6F47" stroke-width="3" stroke-linecap="round" stroke-linejoin="round" fill="none" transform="translate(128,0) scale(-1,1)">
    <circle cx="86" cy="42" r="11" fill="#F5F0E8"/>
    <path d="M 78 56 C 74 76 74 94 74 106 L 98 106 C 98 94 98 76 94 56"/>
    <path d="M 82 56 L 86 70 L 90 56"/>
    <path d="M 84 54 C 80 48 84 44 92 44"/>
    <path d="M 74 70 C 68 66 64 58 68 54 C 70 52 74 52 76 56"/>
    <path d="M 94 70 C 100 66 104 58 100 54 C 98 52 94 52 92 56"/>
  </g>
  <!-- 地面线 -->
  <path d="M 16 108 L 112 108" stroke="#8B5E3C" stroke-opacity="0.5" stroke-width="2"/>
</svg>
